HIERARCHY
ROOT Hips
{
	OFFSET 0.00000 0.00000 0.00000
	CHANNELS 6 Xposition Yposition Zposition Zrotation Yrotation Xrotation 
	JOINT LHipJoint
	{
		OFFSET 0 0 0
		CHANNELS 3 Zrotation Yrotation Xrotation
		JOINT LeftHip
		{
			OFFSET 1.59801 -1.77853 0.57028
			CHANNELS 3 Zrotation Yrotation Xrotation
			JOINT LeftKnee
			{
				OFFSET 2.39439 -6.57854 0.00000
				CHANNELS 3 Zrotation Yrotation Xrotation
				JOINT LeftAnkle
				{
					OFFSET 2.69334 -7.39989 0.00000
					CHANNELS 3 Zrotation Yrotation Xrotation
					JOINT LeftToe
					{
						OFFSET 0.09553 -0.26245 1.73747
						CHANNELS 3 Zrotation Yrotation Xrotation
						End Site
						{
							OFFSET 0.00000 -0.00000 0.89391
						}
					}
				}
			}
		}
	}
	JOINT RHipJoint
	{
		OFFSET 0 0 0
		CHANNELS 3 Zrotation Yrotation Xrotation
		JOINT RightHip
		{
			OFFSET -1.54704 -1.77852 0.57028
			CHANNELS 3 Zrotation Yrotation Xrotation
			JOINT RightKnee
			{
				OFFSET -2.40286 -6.60180 0.00000
				CHANNELS 3 Zrotation Yrotation Xrotation
				JOINT RightAnkle
				{
					OFFSET -2.63873 -7.24984 0.00000
					CHANNELS 3 Zrotation Yrotation Xrotation
					JOINT RightToe
					{
						OFFSET -0.15631 -0.42945 1.84436
						CHANNELS 3 Zrotation Yrotation Xrotation
						End Site
						{
							OFFSET -0.00000 -0.00000 0.95734
						}
					}
				}
			}
		}
	}
	JOINT lowerback
	{
		OFFSET 0 0 0
		CHANNELS 3 Zrotation Yrotation Xrotation
		JOINT Chest
		{
			OFFSET -0.00436 1.89866 -0.04018
			CHANNELS 3 Zrotation Yrotation Xrotation
			JOINT Chest2
			{
				OFFSET 0.02031 1.88273 0.09634
				CHANNELS 3 Zrotation Yrotation Xrotation
				JOINT lowerneck
				{
					OFFSET 0 0 0
					CHANNELS 3 Zrotation Yrotation Xrotation
					JOINT Neck
					{
						OFFSET -0.13105 1.89371 0.23083
						CHANNELS 3 Zrotation Yrotation Xrotation
						JOINT Head
						{
							OFFSET 0.17062 1.83990 -0.54062
							CHANNELS 3 Zrotation Yrotation Xrotation
							End Site
							{
								OFFSET 0.04576 1.94782 -0.21839
							}
						}
					}
				}
				JOINT LeftCollar
				{
					OFFSET 0 0 0
					CHANNELS 3 Zrotation Yrotation Xrotation
					JOINT LeftShoulder
					{
						OFFSET 3.12424 1.09204 0.22226
CHANNELS 3 Zrotation Xrotation Yrotation
						JOINT LeftElbow
						{
OFFSET 0 -5.292770 0.000000
CHANNELS 3 Zrotation Xrotation Yrotation
							JOINT LeftWrist
							{
OFFSET 0 -2.852260 0.000000
CHANNELS 3 Zrotation Xrotation Yrotation
								JOINT lhand
								{
									OFFSET 0 0 0
CHANNELS 3 Zrotation Xrotation Yrotation
									JOINT LFingers
									{
OFFSET 0 -0.602100 0.000000
CHANNELS 3 Zrotation Xrotation Yrotation
										End Site
										{
OFFSET 0 -0.485430 0.000000
										}
									}
								}
								JOINT LThumb
								{
OFFSET 0 0.000000 0.000000
CHANNELS 3 Zrotation Xrotation Yrotation
									End Site
									{
OFFSET 0 -0.492840 0.492840
									}
								}
							}
						}
					}
				}
				JOINT RightCollar
				{
					OFFSET 0 0 0
					CHANNELS 3 Zrotation Yrotation Xrotation
					JOINT RightShoulder
					{
						OFFSET -2.91709 1.01504 0.30199
CHANNELS 3 Zrotation Xrotation Yrotation
						JOINT RightElbow
						{
OFFSET 0 -5.133040 0.000000
CHANNELS 3 Zrotation Xrotation Yrotation
							JOINT RightWrist
							{
OFFSET 0 -2.743050 0.000000
CHANNELS 3 Zrotation Xrotation Yrotation
								JOINT rhand
								{
									OFFSET 0 0 0
CHANNELS 3 Zrotation Xrotation Yrotation
									JOINT RFingers
									{
OFFSET 0 -0.767980 0.000000
CHANNELS 3 Zrotation Xrotation Yrotation
										End Site
										{
OFFSET 0 -0.619160 0.000000
										}
									}
								}
								JOINT RThumb
								{
OFFSET 0 0.000000 0.000000
CHANNELS 3 Zrotation Xrotation Yrotation
									End Site
									{
OFFSET 0 -0.628620 0.628620
									}
								}
							}
						}
					}
				}
			}
		}
	}
}
MOTION
Frames: 8
Frame Time: 0.008333333333333333
0.213700 17.443100 -0.183200 -1.973100 4.196700 2.369900 0.000000 0.000000 0.000000 -18.688300 -22.347600 4.383200 0.729400 5.456800 15.216000 0.342200 9.002100 -17.765900 1.425900 -7.550900 -21.358200 0.000000 0.000000 0.000000 20.917200 8.891500 9.095900 0.000000 -0.000000 0.000000 0.096900 -9.511100 -11.715100 -1.474600 7.673300 -21.726100 -1.095800 -0.778200 -1.593300 1.191800 -1.015500 -2.972800 1.839400 -0.469300 -2.115000 -18.632600 -11.820300 -9.002700 18.144100 -18.475300 24.453600 7.150400 -8.372900 13.306500 -0.000000 0.000000 0.000000 -2.025800 1.468000 -26.220100 7.259100 -12.344800 0.786100 7.545100 26.022800 -22.870300 0.000000 0.000000 0.000000 -7.125000 0.000000 0.000000 -21.715300 51.707300 3.733700 -0.000000 0.000000 0.000000 -0.445700 4.736000 16.909900 -10.367500 -17.312400 -1.582600 -9.535200 36.992100 -10.271800 0.000000 0.000000 0.000000 7.125000 0.000000 -0.000000 12.374100 19.684300 7.662100
0.213310 17.444300 -0.183542 -2.012082 4.187509 2.390201 0.000000 0.000000 0.000000 -18.607547 -22.273465 4.284007 0.732986 5.469730 15.253426 0.353473 8.884370 -17.778354 1.441515 -7.589609 -21.474792 0.000000 0.000000 0.000000 20.956235 8.912030 9.071899 0.000000 0.000000 0.000000 0.100808 -9.525267 -11.655541 -1.438937 7.583728 -21.456837 -1.100905 -0.790084 -1.590761 1.207080 -1.030989 -2.999413 1.858323 -0.476372 -2.142957 -18.615938 -11.772260 -8.958978 18.069744 -18.394819 24.486558 7.137855 -8.345079 13.279041 0.000000 0.000000 0.000000 -2.013460 1.534462 -26.177012 7.266323 -12.356709 0.787679 7.641662 25.998211 -22.893823 0.000000 0.000000 0.000000 -7.125000 0.000000 0.000000 -21.636332 51.745163 3.739725 0.000000 0.000000 0.000000 -0.464924 4.774727 16.983356 -10.387138 -17.342909 -1.588461 -9.354326 37.144675 -10.294157 0.000000 0.000000 0.000000 7.125000 0.000000 0.000000 12.499606 19.669637 7.747838
0.213981 17.443310 -0.180835 -1.976481 4.191399 2.389945 0.000000 0.000000 0.000000 -18.653405 -22.279620 4.287281 0.735430 5.478749 15.279089 0.396351 8.615691 -18.012868 1.227866 -7.027518 -19.797081 0.000000 0.000000 0.000000 20.915921 8.897412 9.096379 0.000000 0.000000 0.000000 0.093376 -9.508383 -11.783147 -1.421801 7.540567 -21.327107 -1.169341 -0.804670 -1.539310 1.189373 -1.050926 -3.028087 1.879666 -0.484343 -2.199788 -18.470667 -11.744616 -9.075857 17.857528 -18.330658 24.680786 7.042802 -8.313092 13.323091 0.000000 0.000000 0.000000 -2.039321 1.502429 -26.139822 7.189558 -12.230790 0.771276 7.632139 26.061876 -22.767445 0.000000 0.000000 0.000000 -7.125000 0.000000 0.000000 -21.579177 51.626204 3.664154 0.000000 0.000000 0.000000 -0.420770 4.826175 16.856985 -10.379111 -17.330446 -1.586014 -9.397919 37.345908 -10.295568 0.000000 0.000000 0.000000 7.125000 0.000000 0.000000 12.469047 19.666368 7.728867
0.214045 17.442793 -0.180910 -1.972379 4.178331 2.382340 0.000000 0.000000 0.000000 -18.671431 -22.279008 4.312359 0.735026 5.477260 15.274888 0.362479 8.869153 -17.869687 1.410072 -7.509311 -21.234059 0.000000 0.000000 0.000000 20.913450 8.913883 9.088636 0.000000 0.000000 0.000000 0.100326 -9.524386 -11.663915 -1.534276 7.819498 -22.167375 -1.218513 -0.813543 -1.531675 1.208286 -1.062522 -3.018387 1.926841 -0.489029 -2.192503 -18.497265 -11.719386 -9.215674 17.746090 -18.273348 24.925006 7.019095 -8.289414 13.429742 0.000000 0.000000 0.000000 -2.127165 1.465730 -26.101843 7.177553 -12.211089 0.768767 7.717534 26.139211 -22.886538 0.000000 0.000000 0.000000 -7.125000 0.000000 0.000000 -21.560832 51.750993 3.728783 0.000000 0.000000 0.000000 -0.478009 4.765578 16.960422 -10.366295 -17.310497 -1.582229 -9.349280 37.257344 -10.262745 0.000000 0.000000 0.000000 7.125000 0.000000 0.000000 12.504952 19.700803 7.742399
0.214013 17.442668 -0.181618 -1.976225 4.193013 2.371916 0.000000 0.000000 0.000000 -18.658263 -22.241499 4.290702 0.736256 5.481735 15.287924 0.366830 8.857409 -17.909371 1.398765 -7.481835 -21.150924 0.000000 0.000000 0.000000 20.921897 8.890908 9.108537 0.000000 0.000000 0.000000 0.096382 -9.511850 -11.726440 -1.541435 7.837374 -22.221303 -1.210717 -0.794333 -1.503888 1.192798 -1.037365 -3.017409 1.906963 -0.476670 -2.208473 -18.524959 -11.723900 -9.200399 17.676878 -18.268078 25.000940 7.000169 -8.295994 13.451055 0.000000 0.000000 0.000000 -2.087271 1.502640 -26.173770 7.257524 -12.342313 0.785798 7.664111 26.090222 -23.026877 0.000000 0.000000 0.000000 -7.125000 0.000000 0.000000 -21.685262 51.872438 3.818530 0.000000 0.000000 0.000000 -0.513014 4.820433 17.031730 -10.391797 -17.350007 -1.589824 -9.517791 37.077451 -10.316392 0.000000 0.000000 0.000000 7.125000 0.000000 0.000000 12.383840 19.640987 7.680739
0.215326 17.441400 -0.182073 -2.017795 4.193649 2.346305 0.000000 0.000000 0.000000 -18.624799 -22.227820 4.259105 0.744195 5.510691 15.371141 0.378868 8.735362 -17.927227 1.313355 -7.258034 -20.482569 0.000000 0.000000 0.000000 20.961803 8.890424 9.112640 0.000000 0.000000 0.000000 0.100374 -9.536625 -11.683219 -1.552719 7.864657 -22.303741 -1.231601 -0.805564 -1.487247 1.254863 -1.051692 -2.969794 1.982258 -0.483346 -2.166775 -18.680331 -11.664585 -9.360768 17.656466 -18.157883 25.253744 7.048226 -8.252207 13.581823 0.000000 0.000000 0.000000 -2.218441 1.404418 -26.138973 7.235030 -12.305347 0.780959 7.649859 26.085573 -22.975055 0.000000 0.000000 0.000000 -7.125000 0.000000 0.000000 -21.671409 51.821885 3.788269 0.000000 0.000000 0.000000 -0.817054 4.791647 18.157019 -10.416438 -17.388354 -1.597181 -9.409853 36.141926 -10.248568 0.000000 0.000000 0.000000 7.125000 0.000000 0.000000 12.463353 19.712384 7.712067
0.216514 17.441505 -0.183081 -2.055257 4.194026 2.377505 0.000000 0.000000 0.000000 -18.575723 -22.273426 4.209692 0.747191 5.521629 15.402473 0.400226 8.626678 -18.067925 1.215369 -6.991906 -19.691870 0.000000 0.000000 0.000000 20.996256 8.900155 9.090376 0.000000 0.000000 0.000000 0.092876 -9.480335 -11.747350 -1.494538 7.722600 -21.874791 -1.202392 -0.769020 -1.488796 1.233272 -1.003239 -2.973251 1.943463 -0.459938 -2.172284 -18.558520 -11.653399 -9.381071 17.420083 -18.142599 25.571280 6.947172 -8.251357 13.670833 0.000000 0.000000 0.000000 -2.159911 1.400243 -26.250015 7.247395 -12.325676 0.783567 7.528108 25.947617 -23.052365 0.000000 0.000000 0.000000 -7.125000 0.000000 0.000000 -21.827456 51.873394 3.846196 0.000000 0.000000 0.000000 -0.889222 4.970703 18.447533 -10.570905 -17.627608 -1.643625 -9.889667 35.800890 -10.499366 0.000000 0.000000 0.000000 7.125000 0.000000 0.000000 12.113396 19.444039 7.559759
0.216261 17.441350 -0.183822 -2.242754 4.187555 2.387181 0.000000 0.000000 0.000000 -18.331045 -22.238042 4.019589 0.769123 5.600157 15.628455 0.411083 8.585237 -18.153475 1.276149 -7.159017 -20.187544 0.000000 0.000000 0.000000 21.199248 8.932425 9.043368 0.000000 0.000000 0.000000 0.092595 -9.472597 -11.740843 -1.457208 7.629811 -21.595166 -1.012365 -0.766808 -1.439484 1.256736 -1.000259 -2.961946 1.861585 -0.462174 -2.191113 -18.365186 -11.623087 -9.621389 17.162160 -18.097653 26.039913 6.829514 -8.218638 13.855055 0.000000 0.000000 0.000000 -1.955536 1.454941 -26.242220 7.538012 -12.801175 0.846858 6.899092 25.376993 -22.484193 0.000000 0.000000 0.000000 -7.125000 0.000000 0.000000 -22.121687 51.244047 3.549802 0.000000 0.000000 0.000000 -1.213392 5.156572 19.617986 -10.884431 -18.110869 -1.739814 -9.734650 34.687241 -11.113174 0.000000 0.000000 0.000000 7.125000 0.000000 0.000000 12.190257 18.842932 7.777252
